<svg width="24" height="25" viewBox="0 0 24 25" fill="none" xmlns="http://www.w3.org/2000/svg">
<path d="M7.5 3.75586H4.5C4.08579 3.75586 3.75 4.09165 3.75 4.50586V19.5059C3.75 19.9201 4.08579 20.2559 4.5 20.2559H7.5C7.91421 20.2559 8.25 19.9201 8.25 19.5059V4.50586C8.25 4.09165 7.91421 3.75586 7.5 3.75586Z" stroke="#EA5915" stroke-width="1.2" stroke-linecap="round" stroke-linejoin="round"/>
<path d="M3.75 7.50586H8.25" stroke="#EA5915" stroke-width="1.2" stroke-linecap="round" stroke-linejoin="round"/>
<path d="M12 3.75586H9C8.58579 3.75586 8.25 4.09165 8.25 4.50586V19.5059C8.25 19.9201 8.58579 20.2559 9 20.2559H12C12.4142 20.2559 12.75 19.9201 12.75 19.5059V4.50586C12.75 4.09165 12.4142 3.75586 12 3.75586Z" stroke="#EA5915" stroke-width="1.2" stroke-linecap="round" stroke-linejoin="round"/>
<path d="M8.25 16.5059H12.75" stroke="#EA5915" stroke-width="1.2" stroke-linecap="round" stroke-linejoin="round"/>
<path d="M16.3761 3.51575L13.4784 4.29221C13.0783 4.39942 12.8408 4.81067 12.948 5.21078L16.8303 19.6997C16.9375 20.0998 17.3488 20.3373 17.7489 20.2301L20.6467 19.4536C21.0468 19.3464 21.2842 18.9351 21.177 18.535L17.2947 4.04609C17.1875 3.64598 16.7762 3.40855 16.3761 3.51575Z" stroke="#EA5915" stroke-width="1.2" stroke-linecap="round" stroke-linejoin="round"/>
<path d="M16.0547 16.8014L20.4014 15.6367" stroke="#EA5915" stroke-width="1.2" stroke-linecap="round" stroke-linejoin="round"/>
<path d="M13.7246 8.10804L18.0713 6.94336" stroke="#EA5915" stroke-width="1.2" stroke-linecap="round" stroke-linejoin="round"/>
</svg>
