<svg width="24" height="25" stroke="#EA5915" viewBox="0 0 24 25"  fill="none" xmlns="http://www.w3.org/2000/svg">
<path d="M14.25 7.50488V19.1035C14.25 19.227 14.2805 19.3485 14.3387 19.4574C14.397 19.5662 14.4812 19.659 14.584 19.7275L15.6145 20.4145C15.7145 20.4812 15.829 20.5229 15.9485 20.536C16.068 20.5491 16.1889 20.5334 16.301 20.49C16.4131 20.4467 16.5131 20.3771 16.5927 20.287C16.6722 20.1969 16.729 20.089 16.7581 19.9724L18 15.0049" stroke-width="1.2" stroke-linecap="round" stroke-linejoin="round"/>
<path d="M18 15.0052C18.9946 15.0052 19.9484 14.6101 20.6517 13.9069C21.3549 13.2036 21.75 12.2498 21.75 11.2552C21.75 10.2607 21.3549 9.30684 20.6517 8.60358C19.9484 7.90032 18.9946 7.50523 18 7.50523H14.25C14.25 7.50523 9.14515 7.50523 4.23271 3.38514C4.12346 3.29319 3.99022 3.23434 3.84866 3.21552C3.70711 3.19671 3.56312 3.2187 3.43364 3.27892C3.30416 3.33914 3.19456 3.43508 3.11774 3.55546C3.04092 3.67583 3.00007 3.81565 3 3.95845V18.552C3.00007 18.6948 3.04092 18.8346 3.11774 18.955C3.19456 19.0754 3.30416 19.1713 3.43364 19.2315C3.56312 19.2918 3.70711 19.3138 3.84866 19.2949C3.99022 19.2761 4.12346 19.2173 4.23271 19.1253C9.14515 15.0052 14.25 15.0052 14.25 15.0052H18Z" stroke-width="1.2" stroke-linecap="round" stroke-linejoin="round"/>
</svg>
