<svg width="24" height="25" viewBox="0 0 24 25" fill="none" xmlns="http://www.w3.org/2000/svg">
<g id="Note">
<path id="Vector" d="M9 9.00494H15" stroke="#EA5915" stroke-width="1.2" stroke-linecap="round" stroke-linejoin="round"/>
<path id="Vector_2" d="M9 12.0049H15" stroke="#EA5915" stroke-width="1.2" stroke-linecap="round" stroke-linejoin="round"/>
<path id="Vector_3" d="M9 15.0049H12" stroke="#EA5915" stroke-width="1.2" stroke-linecap="round" stroke-linejoin="round"/>
<path id="Vector_4" d="M14.6893 20.2549H4.5C4.30109 20.2549 4.11032 20.1759 3.96967 20.0353C3.82902 19.8946 3.75 19.7039 3.75 19.5049V4.50494C3.75 4.30603 3.82902 4.11527 3.96967 3.97461C4.11032 3.83396 4.30109 3.75494 4.5 3.75494H19.5C19.6989 3.75494 19.8897 3.83396 20.0303 3.97461C20.171 4.11527 20.25 4.30603 20.25 4.50494V14.6943C20.25 14.7928 20.2306 14.8903 20.1929 14.9813C20.1552 15.0723 20.1 15.155 20.0303 15.2246L15.2197 20.0353C15.15 20.1049 15.0673 20.1602 14.9764 20.1979C14.8854 20.2355 14.7878 20.2549 14.6893 20.2549V20.2549Z" stroke="#EA5915" stroke-width="1.2" stroke-linecap="round" stroke-linejoin="round"/>
<path id="Vector_5" d="M20.1821 15.0042H15V20.1867" stroke="#EA5915" stroke-width="1.2" stroke-linecap="round" stroke-linejoin="round"/>
</g>
</svg>
